<?xml version="1.0" standalone="no"?>
<!DOCTYPE svg PUBLIC "-//W3C//DTD SVG 20010904//EN"
 "http://www.w3.org/TR/2001/REC-SVG-20010904/DTD/svg10.dtd">
<svg version="1.0" xmlns="http://www.w3.org/2000/svg"
 width="625.000000pt" height="625.000000pt" viewBox="0 0 625.000000 625.000000"
 preserveAspectRatio="xMidYMid meet">

<g transform="translate(0.000000,625.000000) scale(0.100000,-0.100000)"
fill="#000000" stroke="none">
<path d="M670 5856 c-137 -29 -254 -150 -279 -290 -14 -79 -14 -634 0 -711 6
-33 20 -77 31 -99 31 -61 107 -135 173 -170 l60 -31 385 0 385 0 57 28 c73 35
150 112 185 185 l28 57 0 385 0 385 -31 60 c-35 66 -109 142 -170 173 -22 11
-66 25 -99 31 -81 15 -653 13 -725 -3z m703 -199 c74 -37 120 -95 136 -174 9
-40 12 -137 9 -308 -3 -238 -4 -252 -26 -297 -26 -53 -78 -102 -131 -127 -48
-21 -505 -29 -594 -10 -79 16 -137 62 -174 136 l-28 58 0 270 c0 238 2 275 18
315 32 80 101 137 192 161 17 4 145 7 285 6 l255 -2 58 -28z"/>
<path d="M842 5464 c-71 -43 -82 -77 -82 -256 0 -140 2 -156 23 -192 44 -77
55 -81 257 -81 196 0 205 2 254 69 19 25 21 41 21 206 0 202 -4 213 -81 257
-36 21 -52 23 -194 23 -148 0 -157 -1 -198 -26z"/>
<path d="M1963 5859 c-64 -19 -85 -98 -38 -144 23 -24 30 -25 139 -25 63 0
126 -4 139 -9 59 -23 83 -85 56 -145 -11 -24 -54 -46 -90 -46 -9 0 -31 -12
-48 -26 -62 -52 -31 -144 53 -160 20 -3 79 -4 132 -2 87 4 97 6 122 31 l27 27
3 215 c4 246 -1 267 -66 284 -45 13 -385 13 -429 0z"/>
<path d="M2916 5860 c-47 -15 -66 -38 -66 -86 0 -51 27 -78 88 -87 23 -4 48
-17 64 -34 25 -27 26 -34 30 -160 3 -123 5 -134 28 -158 33 -35 97 -35 131 1
24 26 24 26 24 247 0 156 -4 228 -12 243 -7 13 -30 26 -57 33 -52 13 -188 13
-230 1z"/>
<path d="M3475 5859 c-52 -15 -65 -51 -65 -182 0 -110 1 -117 26 -146 l26 -31
209 0 c267 0 295 -10 313 -113 9 -50 40 -77 88 -77 47 0 88 35 88 76 0 44 36
92 78 104 20 5 43 10 50 10 29 0 62 48 62 89 0 33 -5 44 -31 63 -17 13 -49 27
-72 33 -46 11 -87 59 -87 102 0 39 -42 73 -90 73 -46 0 -76 -24 -85 -67 -14
-65 -33 -92 -74 -104 -34 -10 -44 -9 -73 8 -19 11 -36 31 -42 49 -32 109 -57
124 -198 123 -51 0 -107 -5 -123 -10z"/>
<path d="M4840 5856 c-30 -7 -70 -20 -89 -30 -57 -30 -131 -107 -165 -171
l-31 -60 0 -385 0 -385 28 -57 c35 -73 112 -150 185 -185 l57 -28 385 0 385 0
60 31 c66 35 142 109 173 170 11 22 25 66 31 99 14 77 14 632 0 711 -26 145
-148 267 -293 293 -84 15 -655 13 -726 -3z m690 -193 c57 -27 113 -85 137
-143 16 -40 18 -77 18 -315 l0 -270 -28 -58 c-37 -74 -95 -120 -174 -136 -89
-19 -546 -11 -594 10 -53 25 -105 74 -131 127 -22 45 -23 59 -26 297 -4 274 3
335 46 398 32 47 72 76 137 99 44 16 82 18 310 15 240 -2 263 -4 305 -24z"/>
<path d="M5016 5467 c-77 -44 -81 -55 -81 -257 0 -165 2 -181 21 -206 49 -67
58 -69 254 -69 202 0 213 4 257 81 21 36 23 52 23 192 0 180 -11 214 -83 257
-42 24 -51 25 -198 25 -141 0 -157 -2 -193 -23z"/>
<path d="M2698 5663 c-51 -32 -58 -93 -15 -140 15 -17 32 -23 63 -23 35 0 47
5 68 31 42 49 28 107 -31 138 -30 15 -53 13 -85 -6z"/>
<path d="M1931 5274 c-42 -35 -44 -92 -4 -129 39 -35 86 -34 124 4 38 39 38
79 0 120 -37 39 -78 41 -120 5z"/>
<path d="M2890 5283 c-35 -24 -40 -33 -40 -80 0 -35 5 -45 29 -62 56 -40 120
-20 141 44 10 31 9 40 -9 69 -30 48 -78 59 -121 29z"/>
<path d="M3278 5293 c-27 -7 -61 -69 -54 -99 17 -67 90 -94 147 -53 24 17 29
27 29 62 0 47 -5 56 -40 80 -24 17 -47 19 -82 10z"/>
<path d="M3821 5271 l-31 -29 0 -129 c0 -128 0 -129 -27 -155 -16 -14 -38 -29
-49 -32 -43 -13 -114 34 -114 75 0 95 -118 142 -170 69 -18 -26 -20 -45 -20
-240 0 -247 -4 -263 -73 -280 -105 -27 -117 -48 -117 -211 l0 -111 -34 -34
c-21 -21 -44 -34 -59 -34 -41 0 -84 44 -102 105 -17 61 -43 85 -93 85 -43 0
-78 -35 -87 -88 -8 -49 -61 -102 -101 -102 -39 0 -89 56 -97 107 -8 51 -45 83
-94 83 -44 0 -78 -36 -93 -100 -9 -39 -19 -54 -45 -70 -18 -11 -44 -20 -59
-20 -81 0 -104 -135 -29 -169 34 -16 1372 -16 1407 0 34 16 57 74 44 111 -18
51 -40 58 -175 58 l-122 0 -36 31 c-40 35 -47 81 -19 124 22 34 71 45 195 45
102 0 106 1 131 28 58 61 26 142 -62 156 -54 9 -90 44 -90 90 0 49 7 63 46 87
63 39 134 -4 148 -89 7 -50 44 -82 93 -82 42 0 78 36 88 88 13 68 39 92 117
106 60 11 68 32 68 173 0 70 -5 133 -11 147 -11 23 -53 46 -86 46 -31 0 -73
41 -84 83 -17 63 -29 84 -56 96 -39 18 -69 13 -102 -18z"/>
<path d="M2328 5099 c-14 -6 -30 -18 -34 -27 -5 -9 -11 -117 -14 -239 -5 -205
-7 -224 -26 -250 -15 -19 -35 -31 -68 -38 -65 -14 -96 -43 -96 -91 0 -27 7
-46 27 -66 27 -28 28 -28 152 -28 118 0 128 2 156 24 l30 24 5 135 c5 125 7
137 29 161 35 37 74 42 116 16 42 -26 43 -32 47 -186 3 -120 3 -121 33 -147
40 -35 83 -35 121 0 l29 27 3 315 2 316 -24 30 -24 30 -219 2 c-128 1 -229 -2
-245 -8z"/>
<path d="M3078 4905 c-35 -19 -48 -66 -48 -170 0 -137 26 -185 98 -185 72 0
100 69 89 224 -6 98 -11 113 -48 131 -35 19 -56 18 -91 0z"/>
<path d="M1927 4705 c-59 -55 -17 -155 65 -155 28 0 42 7 63 32 72 86 -46 199
-128 123z"/>
<path d="M4203 4706 c-28 -24 -28 -26 -33 -160 -5 -132 -6 -136 -33 -163 -27
-27 -31 -28 -162 -33 -123 -5 -137 -7 -157 -28 -35 -35 -31 -97 7 -128 28 -22
39 -24 143 -24 188 0 202 -15 202 -205 0 -111 1 -113 29 -144 36 -39 78 -41
118 -7 28 24 28 26 33 159 5 126 7 137 29 161 15 16 41 29 65 33 124 20 126
168 4 186 -21 3 -50 17 -65 31 -27 25 -28 29 -33 165 -5 133 -6 140 -30 160
-34 28 -82 27 -117 -3z"/>
<path d="M786 4319 c-35 -42 -34 -80 5 -118 38 -39 76 -40 118 -5 64 53 25
154 -59 154 -30 0 -44 -6 -64 -31z"/>
<path d="M1177 4330 c-16 -13 -29 -36 -33 -58 -13 -67 -60 -112 -118 -112 -15
0 -34 -12 -50 -31 -25 -29 -26 -36 -26 -156 0 -124 0 -125 29 -154 20 -20 39
-29 61 -29 23 0 42 -10 66 -34 l34 -34 0 -115 c0 -139 8 -163 57 -184 35 -14
40 -14 73 3 28 15 37 29 50 72 18 63 57 102 101 102 42 0 89 48 89 90 0 44 56
100 100 100 22 0 41 9 61 29 39 39 40 92 3 126 -15 14 -32 25 -38 25 -6 0 -28
5 -49 11 -41 11 -77 56 -77 96 0 36 47 82 91 89 89 15 128 98 72 156 l-27 28
-222 0 c-208 0 -223 -1 -247 -20z"/>
<path d="M1927 4322 c-26 -27 -27 -31 -27 -156 l0 -128 29 -29 c31 -31 53 -35
95 -19 44 16 56 57 56 185 0 115 0 117 -29 146 -40 39 -87 40 -124 1z"/>
<path d="M5145 4324 c-25 -27 -25 -27 -25 -251 l0 -225 29 -29 c29 -29 30 -29
154 -29 119 0 127 -1 155 -25 21 -18 32 -38 37 -68 9 -55 48 -97 90 -97 54 0
82 32 100 113 8 39 51 77 87 77 85 0 98 38 98 280 0 203 -8 248 -48 269 -35
19 -81 13 -107 -14 -24 -23 -25 -31 -25 -135 0 -158 -25 -209 -101 -210 -51 0
-87 31 -96 83 -8 54 -46 92 -100 100 -49 8 -93 54 -93 97 0 16 -11 42 -26 59
-35 42 -93 44 -129 5z"/>
<path d="M423 4148 c-56 -27 -45 -132 16 -157 61 -26 111 5 118 71 5 40 2 50
-20 72 -28 28 -74 33 -114 14z"/>
<path d="M4575 4135 c-37 -36 -34 -88 6 -126 42 -39 82 -39 120 2 37 40 39 86
4 123 -33 36 -95 37 -130 1z"/>
<path d="M603 3946 c-27 -24 -28 -27 -31 -141 -4 -125 5 -165 42 -190 11 -8
31 -15 44 -15 49 0 81 -27 97 -84 28 -97 104 -132 162 -74 24 24 27 36 31 112
9 162 -16 219 -100 232 -51 9 -85 45 -94 100 -11 78 -92 110 -151 60z"/>
<path d="M4781 3956 c-49 -27 -55 -94 -12 -137 37 -37 82 -39 116 -5 80 80 -5
197 -104 142z"/>
<path d="M4435 3783 c-37 -9 -75 -54 -75 -89 0 -48 42 -94 86 -94 42 0 92 -42
100 -86 9 -46 -40 -99 -101 -108 -51 -8 -85 -45 -85 -94 0 -35 38 -77 78 -86
99 -23 112 -46 112 -195 0 -122 -10 -155 -51 -177 -34 -17 -60 -18 -93 -3 -43
20 -56 64 -56 193 0 111 -1 118 -25 141 -18 19 -35 25 -65 25 -51 0 -85 -32
-94 -90 -8 -52 -32 -74 -100 -94 -71 -21 -95 -57 -77 -118 13 -41 21 -46 101
-70 66 -19 80 -53 80 -195 0 -110 1 -114 28 -144 21 -24 37 -32 60 -31 41 1
81 29 88 61 3 14 7 37 10 49 3 13 16 35 29 48 57 57 165 11 165 -71 0 -56 47
-93 110 -86 8 1 27 15 43 32 26 28 27 33 27 138 0 159 16 190 108 206 34 5 48
14 63 39 18 29 19 53 19 334 0 212 -4 310 -12 325 -16 30 -37 44 -78 52 -57
10 -78 31 -95 89 -9 29 -27 64 -41 77 -23 22 -35 24 -132 26 -59 1 -116 -1
-127 -4z"/>
<path d="M4962 3762 c-15 -12 -25 -33 -29 -60 -5 -36 -2 -45 25 -72 38 -37 80
-40 119 -6 23 20 28 32 28 71 0 37 -5 50 -25 65 -31 24 -88 25 -118 2z"/>
<path d="M1582 3590 c-34 -15 -61 -51 -62 -83 0 -44 27 -75 80 -91 27 -8 58
-19 69 -25 41 -23 44 -116 4 -147 -10 -8 -41 -21 -70 -29 -77 -24 -105 -82
-67 -140 21 -32 71 -45 174 -44 136 0 163 17 189 116 24 88 137 99 176 18 11
-24 15 -65 15 -148 0 -100 2 -117 21 -141 17 -21 29 -26 65 -26 52 0 80 22 89
72 3 18 5 164 3 325 l-3 291 -24 26 c-18 19 -35 26 -62 26 -49 0 -78 -25 -90
-80 -6 -25 -22 -57 -36 -72 -55 -58 -146 -23 -159 61 -4 25 -17 50 -36 68 -28
27 -34 28 -141 30 -62 2 -123 -2 -135 -7z"/>
<path d="M411 3566 c-41 -44 -29 -115 24 -140 62 -30 125 11 125 81 0 74 -98
113 -149 59z"/>
<path d="M4200 3568 c-47 -51 -30 -127 34 -148 89 -29 158 82 90 145 -36 33
-95 34 -124 3z"/>
<path d="M630 3399 c-27 -10 -60 -56 -60 -84 0 -57 65 -104 118 -84 46 18 62
39 62 84 0 65 -59 106 -120 84z"/>
<path d="M1014 3398 c-38 -10 -59 -39 -67 -93 -8 -49 -32 -70 -102 -91 -79
-22 -103 -70 -70 -134 14 -26 61 -50 101 -50 7 0 26 -13 43 -29 l31 -29 0
-220 c0 -220 0 -220 25 -250 30 -35 62 -44 104 -26 33 14 43 32 61 102 12 47
35 66 94 77 108 19 115 157 9 180 -80 18 -103 43 -103 110 0 46 26 70 94 90
60 17 86 46 86 92 0 44 -25 70 -83 87 -72 21 -85 33 -102 95 -22 83 -54 107
-121 89z"/>
<path d="M5755 3402 c-33 -7 -54 -32 -69 -86 -25 -84 -36 -90 -192 -97 -123
-5 -136 -7 -159 -29 -33 -31 -34 -88 -2 -126 23 -27 27 -28 160 -33 124 -6
137 -8 161 -30 14 -13 27 -40 31 -62 10 -60 39 -89 86 -89 89 0 99 27 99 275
0 172 -9 247 -31 260 -19 12 -64 21 -84 17z"/>
<path d="M417 3198 c-27 -21 -37 -65 -37 -161 0 -154 18 -187 99 -187 31 0 44
6 60 26 19 24 21 40 21 156 0 124 -1 130 -25 153 -27 28 -89 34 -118 13z"/>
<path d="M1380 3012 c-48 -23 -62 -75 -34 -123 18 -31 25 -34 71 -37 45 -3 53
0 72 24 39 50 23 116 -34 140 -42 17 -33 17 -75 -4z"/>
<path d="M1568 2824 c-80 -43 -54 -153 39 -170 55 -10 73 -22 88 -58 17 -40
10 -73 -23 -108 -53 -57 -145 -19 -159 65 -14 90 -96 125 -154 68 l-29 -29 0
-217 c0 -266 6 -285 95 -285 45 0 74 27 82 75 8 55 37 92 81 105 21 6 158 10
324 10 197 0 295 4 313 12 36 16 54 80 33 116 -26 44 -53 52 -183 52 -102 1
-123 3 -142 19 -46 39 -53 110 -13 146 10 9 41 22 70 30 75 20 104 67 79 126
-21 52 -53 59 -276 59 -155 -1 -204 -4 -225 -16z"/>
<path d="M5174 2830 c-55 -22 -71 -99 -29 -144 36 -39 85 -38 128 2 45 43 36
96 -23 136 -27 18 -44 19 -76 6z"/>
<path d="M5540 2818 c-28 -19 -37 -33 -44 -71 -10 -55 -51 -97 -96 -97 -16 0
-42 -11 -59 -26 -64 -53 -29 -146 61 -160 45 -8 83 -43 92 -85 3 -18 6 -78 6
-136 0 -97 2 -106 25 -128 24 -25 57 -31 101 -19 24 6 54 53 54 83 0 34 21 69
49 79 14 6 47 17 73 27 41 14 49 22 58 53 17 63 13 222 -8 262 -15 30 -25 37
-76 50 -47 12 -63 21 -78 45 -10 17 -18 40 -18 52 0 29 -47 80 -80 88 -18 4
-36 -1 -60 -17z"/>
<path d="M624 2640 c-34 -13 -57 -57 -50 -96 13 -67 89 -94 147 -53 24 17 29
27 29 64 0 36 -5 48 -31 69 -31 27 -58 31 -95 16z"/>
<path d="M432 2450 c-56 -23 -60 -134 -6 -158 67 -31 134 5 134 73 0 49 -13
71 -51 84 -37 13 -46 13 -77 1z"/>
<path d="M4414 2450 c-88 -36 -60 -170 36 -170 111 0 124 156 15 175 -17 2
-40 0 -51 -5z"/>
<path d="M5180 2453 c-62 -24 -81 -103 -35 -148 27 -28 88 -34 116 -12 22 17
39 51 39 81 0 50 -72 98 -120 79z"/>
<path d="M630 2259 c-56 -22 -74 -77 -43 -129 21 -36 35 -40 161 -40 146 0
202 -29 202 -105 0 -75 104 -114 155 -59 24 26 25 33 25 155 0 121 -1 129 -24
156 l-24 28 -214 2 c-127 2 -223 -2 -238 -8z"/>
<path d="M2329 2259 c-38 -14 -49 -48 -49 -157 0 -111 -11 -161 -41 -188 -18
-16 -40 -19 -153 -22 -125 -4 -132 -5 -158 -30 -39 -36 -39 -91 -1 -127 26
-24 34 -25 141 -25 161 0 186 -13 212 -116 12 -47 38 -69 95 -80 55 -10 85
-43 85 -94 0 -47 -31 -85 -77 -95 -77 -17 -103 -43 -103 -104 0 -31 30 -68 63
-76 13 -4 119 -5 236 -3 210 3 213 3 232 27 11 13 22 35 25 50 12 56 27 80 60
96 40 19 74 12 109 -22 24 -24 25 -32 25 -132 0 -58 5 -122 10 -142 18 -63 88
-89 138 -51 31 24 41 75 42 198 0 93 2 103 24 127 13 14 41 29 62 33 63 11 91
37 99 90 8 57 37 88 90 98 61 12 92 39 100 89 15 90 48 107 216 107 101 0 107
1 133 26 37 37 36 91 -2 127 l-28 27 -221 0 -221 0 -31 -31 c-17 -17 -31 -41
-31 -54 0 -55 -49 -105 -102 -105 -40 0 -67 -27 -84 -86 -40 -139 -158 -139
-198 0 -18 61 -44 86 -91 86 -44 0 -73 -25 -85 -73 -17 -68 -26 -81 -62 -101
-62 -34 -125 3 -139 82 -10 55 -46 92 -89 92 -18 0 -42 12 -65 31 l-35 31 0
213 c0 118 -4 225 -10 240 -6 15 -24 32 -45 40 -39 17 -40 17 -76 4z"/>
<path d="M3084 2256 c-35 -16 -44 -32 -44 -82 0 -24 8 -43 25 -59 23 -24 29
-25 153 -25 116 0 132 2 156 21 20 16 26 29 26 60 0 53 -13 74 -51 88 -45 16
-227 13 -265 -3z"/>
<path d="M4225 2256 c-32 -14 -43 -32 -66 -106 -13 -43 -17 -46 -78 -67 -80
-27 -96 -43 -96 -93 0 -51 32 -86 87 -93 91 -12 126 -109 60 -168 -20 -18 -43
-29 -62 -29 -16 0 -41 -10 -57 -24 -22 -19 -28 -32 -28 -66 0 -34 6 -47 28
-66 16 -13 35 -24 42 -24 8 0 33 -7 55 -16 55 -22 60 -48 60 -290 l0 -202 29
-31 29 -31 130 0 130 0 25 30 c14 16 28 47 32 69 4 28 16 49 37 66 28 24 36
25 152 25 137 0 158 -8 182 -67 13 -30 13 -38 -2 -69 -19 -39 -33 -49 -86 -59
-21 -4 -49 -18 -63 -31 -24 -22 -25 -27 -25 -154 l0 -132 29 -29 c57 -56 130
-28 151 58 22 91 45 103 205 103 111 0 113 1 144 29 22 21 31 38 31 61 0 44
56 100 100 100 41 0 90 49 90 90 0 43 -43 87 -92 95 -53 9 -98 52 -98 93 0 45
-32 78 -90 92 -34 8 -58 22 -75 42 l-25 30 0 314 0 315 -23 23 c-13 13 -49 31
-79 40 -47 13 -58 22 -72 50 -9 19 -16 42 -16 51 0 61 -51 85 -180 85 -146 0
-179 -17 -194 -101 -21 -117 -177 -110 -193 9 -9 69 -68 105 -128 78z m643
-370 c13 -7 32 -26 43 -42 17 -26 19 -48 19 -227 0 -304 7 -297 -292 -297
-185 0 -206 2 -236 20 -18 11 -37 32 -43 47 -6 16 -9 110 -7 239 3 195 5 214
23 234 11 12 29 26 40 31 34 14 427 10 453 -5z"/>
<path d="M4577 1672 c-83 -87 39 -208 124 -123 37 37 38 79 3 120 -35 42 -88
43 -127 3z"/>
<path d="M429 2065 c-52 -28 -58 -109 -11 -145 59 -47 142 -8 142 67 0 43 -5
52 -40 76 -30 21 -56 21 -91 2z"/>
<path d="M1574 2070 c-58 -23 -71 -100 -26 -143 28 -26 31 -27 158 -27 130 0
130 0 157 28 44 46 34 108 -23 137 -32 17 -228 21 -266 5z"/>
<path d="M2698 2063 c-42 -27 -51 -60 -46 -189 3 -115 3 -116 33 -140 64 -51
134 -22 154 64 12 55 44 90 90 98 54 10 71 22 88 61 18 45 4 87 -38 108 -42
22 -245 20 -281 -2z"/>
<path d="M5527 1862 c-39 -40 -38 -103 1 -130 15 -11 44 -22 66 -26 48 -9 82
-46 91 -98 14 -81 93 -114 152 -64 26 22 27 29 31 125 5 125 -2 167 -35 197
-25 23 -33 24 -153 24 -125 0 -126 0 -153 -28z"/>
<path d="M660 1691 c-94 -30 -195 -114 -238 -197 -11 -22 -25 -66 -31 -99 -14
-77 -14 -632 0 -711 26 -145 148 -267 293 -293 92 -17 645 -14 729 4 103 22
195 95 250 200 l32 60 0 385 0 385 -28 57 c-35 73 -112 150 -185 185 l-57 28
-370 2 c-203 1 -381 -2 -395 -6z m712 -199 c53 -26 102 -78 127 -131 21 -48
29 -505 10 -595 -17 -79 -69 -144 -140 -177 -53 -24 -59 -24 -329 -24 -260 0
-277 1 -320 21 -58 28 -114 87 -137 144 -16 40 -18 77 -18 315 l0 270 28 57
c16 33 45 70 68 89 67 53 105 58 399 56 255 -2 267 -3 312 -25z"/>
<path d="M854 1306 c-17 -8 -44 -31 -60 -52 -29 -37 -29 -38 -32 -201 -3 -159
-3 -165 21 -206 14 -24 42 -52 65 -65 36 -20 53 -22 193 -22 141 0 157 2 193
23 77 44 81 55 81 257 0 165 -2 181 -21 206 -48 65 -60 69 -242 71 -125 2
-175 -1 -198 -11z"/>
<path d="M5336 1674 c-37 -37 -36 -94 1 -129 39 -35 86 -34 124 4 37 37 38 79
3 120 -35 41 -89 43 -128 5z"/>
<path d="M1945 1498 c-41 -22 -45 -37 -45 -174 l0 -132 31 -26 c41 -35 83 -34
120 3 29 29 29 29 29 156 0 127 0 127 -29 156 -31 31 -70 37 -106 17z"/>
<path d="M3634 1487 l-29 -25 -5 -230 c-6 -296 5 -279 -185 -284 -125 -3 -135
-4 -159 -27 -16 -15 -29 -41 -33 -64 -8 -55 -48 -96 -98 -104 -53 -8 -71 -25
-90 -88 -17 -61 -61 -105 -104 -105 -16 0 -40 -9 -55 -21 -36 -29 -37 -95 -1
-129 22 -21 37 -24 127 -27 69 -3 118 0 148 9 43 13 45 16 62 73 21 68 44 93
97 101 53 8 81 36 96 96 23 87 34 92 189 96 133 4 134 4 162 33 28 29 29 33
34 165 l5 136 30 24 c17 13 40 24 53 24 50 0 91 37 92 82 0 60 -26 86 -103
103 -41 8 -73 45 -80 90 -10 57 -36 85 -83 92 -33 4 -46 1 -70 -20z"/>
<path d="M5545 1308 c-53 -29 -63 -102 -19 -143 26 -24 33 -25 151 -25 70 0
133 5 145 11 11 6 26 26 34 45 12 30 12 39 0 69 -9 21 -26 39 -41 45 -35 13
-245 12 -270 -2z"/>
<path d="M2123 1112 c-12 -9 -27 -38 -34 -64 -15 -62 -45 -94 -97 -103 -88
-15 -122 -97 -65 -157 15 -15 37 -28 49 -28 58 0 114 -53 114 -108 0 -32 52
-82 85 -82 44 0 74 28 90 85 19 65 45 93 94 101 21 3 51 16 67 29 23 18 29 31
29 63 0 54 -33 89 -92 98 -51 8 -78 36 -95 101 -18 74 -92 107 -145 65z"/>
<path d="M2724 944 c-66 -15 -88 -103 -39 -154 l29 -30 126 0 c114 0 128 2
149 21 46 43 48 100 4 141 -22 21 -34 23 -136 25 -62 1 -122 -1 -133 -3z"/>
<path d="M4013 918 c-30 -33 -36 -62 -19 -101 27 -65 97 -78 140 -26 54 64 19
149 -62 149 -27 0 -45 -7 -59 -22z"/>
<path d="M5715 915 c-36 -35 -34 -92 3 -128 85 -82 198 43 119 131 -29 31 -90
30 -122 -3z"/>
<path d="M2497 732 c-30 -33 -38 -70 -22 -102 40 -77 125 -79 164 -3 17 34 13
59 -15 92 -21 26 -33 31 -68 31 -28 0 -48 -6 -59 -18z"/>
<path d="M3822 728 c-11 -13 -25 -43 -31 -67 -5 -24 -21 -56 -35 -70 -25 -25
-33 -26 -162 -31 -134 -5 -136 -5 -160 -33 -13 -15 -24 -37 -24 -49 0 -36 33
-78 70 -88 48 -14 943 -13 992 0 61 17 68 37 68 181 0 120 -1 127 -25 153 -18
20 -34 26 -65 26 -50 0 -81 -31 -95 -98 -8 -36 -18 -51 -44 -69 -30 -21 -46
-23 -143 -23 -85 0 -116 4 -139 17 -26 16 -59 75 -59 107 0 7 -11 25 -25 40
-32 34 -92 36 -123 4z"/>
<path d="M5524 725 c-24 -24 -25 -27 -22 -161 l3 -137 28 -21 c25 -18 42 -21
140 -21 141 0 164 6 182 49 28 66 -11 126 -79 126 -36 0 -83 50 -96 103 -16
63 -41 87 -91 87 -29 0 -47 -7 -65 -25z"/>
<path d="M2305 535 c-54 -54 -16 -145 60 -145 48 0 70 13 85 49 36 88 -78 164
-145 96z"/>
<path d="M4960 540 c-41 -41 -38 -108 6 -137 30 -19 165 -30 240 -18 87 13
120 83 68 144 l-26 31 -134 0 c-120 0 -136 -2 -154 -20z"/>
</g>
</svg>
